<svg preserveAspectRatio="none" width="100%" height="100%" overflow="visible" style="display: block;" viewBox="0 0 21.25 10" fill="none" xmlns="http://www.w3.org/2000/svg">
<path id="Vector" fill-rule="evenodd" clip-rule="evenodd" d="M13.5348 0.0115983C13.08 0.0148076 12.7003 0.0244354 12.6911 0.0329864C12.6763 0.0466047 12.5004 0.63975 12.2981 1.35759C12.2403 1.56301 11.2635 4.98266 11.0829 5.61199C11.0446 5.74553 10.9616 6.03532 10.8983 6.25596C10.7487 6.77831 10.7444 6.79076 10.7285 6.75213C10.7214 6.73471 10.5996 6.28815 10.4579 5.75978C10.3161 5.23142 10.0319 4.17679 9.82612 3.41617C9.62036 2.65555 9.33201 1.58868 9.18534 1.04534C9.03867 0.502005 8.91243 0.048336 8.90481 0.0371669C8.89623 0.0246043 8.42924 0.0168767 7.67931 0.0168767H6.46764L6.44567 0.0643824C6.43362 0.0904999 6.29117 0.605947 6.12916 1.2098C5.96714 1.81365 5.66755 2.92528 5.46341 3.68009C5.25926 4.4349 4.99756 5.40402 4.88186 5.83368C4.63942 6.73382 4.62627 6.78008 4.61538 6.77009C4.60813 6.76344 3.92804 4.40207 3.79841 3.93346C3.63514 3.34318 2.68922 0.0522631 2.6782 0.0361112C2.66239 0.0129495 0.0170591 0.00957138 0.00208902 0.0327119C-0.00922018 0.0501518 0.00948074 0.105448 0.475 1.43149C0.652333 1.93663 0.951712 2.79174 1.14026 3.33172C1.32881 3.8717 1.5965 4.63654 1.73508 5.03136C1.87368 5.42619 2.1465 6.20528 2.34134 6.76268C3.19105 9.19335 3.42145 9.84719 3.43885 9.87694C3.45489 9.90443 3.61033 9.90872 4.61442 9.90946C5.38893 9.91003 5.77778 9.90304 5.79042 9.88834C5.80082 9.87627 5.85433 9.70962 5.90934 9.51801C6.0374 9.07184 6.11913 8.79033 6.70616 6.77324C6.7822 6.51196 6.90238 6.09866 6.97322 5.8548C7.04408 5.61093 7.17525 5.15963 7.26472 4.8519C7.35416 4.54417 7.47504 4.12612 7.53334 3.9229C7.59161 3.71968 7.64673 3.54116 7.65583 3.5262C7.66502 3.51112 7.71074 3.63335 7.75854 3.80067C7.8534 4.13283 8.15238 5.16085 8.32214 5.73867C8.38186 5.94189 8.47718 6.26731 8.53396 6.46181C8.59074 6.65631 8.68443 6.97699 8.74214 7.1744C8.9794 7.98596 9.06197 8.26884 9.22902 8.84238C9.32544 9.17333 9.43275 9.5416 9.46751 9.66072L9.53075 9.87732L10.7085 9.87185L11.8862 9.86639L11.9505 9.68692C11.9859 9.58821 12.1741 9.0514 12.3686 8.494C12.5632 7.9366 12.8357 7.15751 12.9741 6.76268C13.1126 6.36786 13.3804 5.60302 13.5691 5.06304C13.9129 4.07916 14.3207 2.91548 14.875 1.33648C15.2114 0.378237 15.3293 0.0344432 15.3294 0.0115983C15.3294 0.00287836 15.1117 -0.00197779 14.8456 0.000766982C14.5795 0.00351175 13.9897 0.00838901 13.5348 0.0115983ZM19.0836 6.74252C18.229 6.90752 17.6609 7.55244 17.6618 8.35676C17.6623 8.84558 17.8406 9.24421 18.2001 9.56064C18.8368 10.121 19.9632 10.1495 20.6361 9.62217C21.1333 9.23251 21.3499 8.60869 21.2065 7.97942C21.0854 7.44818 20.6939 7.01883 20.1589 6.83075C19.8236 6.71288 19.4121 6.67909 19.0836 6.74252Z" fill="var(--fill-0, black)"/>
</svg>
