<svg preserveAspectRatio="none" width="100%" height="100%" overflow="visible" style="display: block;" viewBox="0 0 24.5833 24.5833" fill="none" xmlns="http://www.w3.org/2000/svg">
<g id="Group">
<path id="Vector" d="M12.2917 24.1667C18.85 24.1667 24.1667 18.8501 24.1667 12.2917C24.1667 5.73329 18.85 0.416667 12.2917 0.416667C5.73329 0.416667 0.416667 5.73329 0.416667 12.2917C0.416667 18.8501 5.73329 24.1667 12.2917 24.1667Z" stroke="var(--stroke-0, black)" stroke-width="0.833333" stroke-miterlimit="10"/>
<path id="Vector_2" d="M8.80315 11.9206C8.86054 11.9206 8.89881 11.9206 8.93707 11.9401C8.97534 11.9596 9.03274 11.9792 9.071 11.9987L9.16667 11.7448C9.05187 11.6862 8.93707 11.6667 8.80315 11.6667C8.68835 11.6667 8.59269 11.6862 8.49702 11.7448C8.40136 11.8034 8.34396 11.862 8.3057 11.9596C8.26743 12.0573 8.22917 12.1549 8.22917 12.2917C8.22917 12.487 8.26743 12.6432 8.3631 12.7604C8.45876 12.8581 8.59269 12.9167 8.76488 12.9167C8.89881 12.9167 8.99447 12.8971 9.09014 12.8581V12.5846C9.03274 12.6042 8.99447 12.6237 8.93707 12.6432C8.87968 12.6628 8.84141 12.6628 8.78401 12.6628C8.61182 12.6628 8.51616 12.5456 8.51616 12.3112C8.51616 12.194 8.53529 12.1159 8.57355 12.0573C8.66922 11.9596 8.72662 11.9206 8.80315 11.9206Z" fill="var(--fill-0, black)"/>
<path id="Vector_3" d="M10.5184 12.6344C10.453 12.6344 10.3876 12.6344 10.3222 12.6142C10.2568 12.5941 10.1696 12.5739 10.1042 12.5336V12.836C10.1696 12.8562 10.235 12.8763 10.3004 12.8965C10.3658 12.9167 10.4312 12.9167 10.5184 12.9167C10.6274 12.9167 10.7146 12.8965 10.8018 12.8763C10.8891 12.836 10.9327 12.7957 10.9763 12.7352C11.0199 12.6747 11.0417 12.6142 11.0417 12.5336C11.0417 12.453 11.0199 12.3723 10.9763 12.332C10.9327 12.2715 10.8454 12.2312 10.7364 12.1707C10.6056 12.1102 10.5402 12.0901 10.5184 12.0699C10.4966 12.0497 10.4748 12.0296 10.4748 12.0094C10.4748 11.9892 10.4748 11.9691 10.4966 11.9489C10.5184 11.9288 10.562 11.9288 10.6056 11.9288C10.6928 11.9288 10.8018 11.9489 10.9327 12.0094L11.0417 11.7473C10.8891 11.6868 10.7582 11.6667 10.6056 11.6667C10.453 11.6667 10.3222 11.707 10.235 11.7675C10.1478 11.828 10.1042 11.9288 10.1042 12.0296C10.1042 12.0901 10.1042 12.1505 10.126 12.1909C10.1478 12.2312 10.1696 12.2715 10.2132 12.3118C10.2568 12.3522 10.3222 12.3925 10.4094 12.4126C10.4966 12.453 10.562 12.4731 10.5838 12.4933C10.6056 12.5134 10.6274 12.5134 10.6274 12.5336C10.6274 12.5538 10.6492 12.5538 10.6492 12.5739C10.6492 12.5941 10.6274 12.6142 10.6056 12.6344C10.6056 12.6344 10.562 12.6344 10.5184 12.6344Z" fill="var(--fill-0, black)"/>
<path id="Vector_4" d="M12.0809 12.6344C12.0155 12.6344 11.9501 12.6344 11.8847 12.6142C11.8193 12.5941 11.7321 12.5739 11.6667 12.5336V12.836C11.7321 12.8562 11.7975 12.8763 11.8629 12.8965C11.9283 12.9167 11.9937 12.9167 12.0809 12.9167C12.1899 12.9167 12.2771 12.8965 12.3643 12.8763C12.4515 12.836 12.4952 12.7957 12.5388 12.7352C12.5824 12.6747 12.6042 12.6142 12.6042 12.5336C12.6042 12.453 12.5824 12.3723 12.5388 12.332C12.4952 12.2715 12.4079 12.2312 12.2989 12.1707C12.1681 12.1102 12.1027 12.0901 12.0809 12.0699C12.0591 12.0497 12.0373 12.0296 12.0373 12.0094C12.0373 11.9892 12.0373 11.9691 12.0591 11.9489C12.0809 11.9288 12.1245 11.9288 12.1681 11.9288C12.2553 11.9288 12.3643 11.9489 12.4952 12.0094L12.6042 11.7473C12.4516 11.6868 12.3207 11.6667 12.1681 11.6667C12.0155 11.6667 11.8847 11.707 11.7975 11.7675C11.7103 11.828 11.6667 11.9288 11.6667 12.0296C11.6667 12.0901 11.6667 12.1505 11.6885 12.1909C11.7103 12.2312 11.7321 12.2715 11.7757 12.3118C11.8193 12.3522 11.8847 12.3925 11.9719 12.4126C12.0591 12.453 12.1245 12.4731 12.1463 12.4933C12.1681 12.5134 12.1899 12.5134 12.1899 12.5336C12.1899 12.5538 12.2117 12.5538 12.2117 12.5739C12.2117 12.5941 12.1899 12.6142 12.1681 12.6344C12.1899 12.6344 12.1463 12.6344 12.0809 12.6344Z" fill="var(--fill-0, black)"/>
<path id="Vector_5" d="M14.1667 12.2715C14.1667 12.0699 14.1126 11.9288 14.0224 11.828C13.9323 11.7272 13.7881 11.6667 13.6078 11.6667H13.2292V12.9167H13.5897C13.77 12.9167 13.9143 12.8562 14.0224 12.7554C14.1126 12.6344 14.1667 12.4731 14.1667 12.2715ZM13.7881 12.5538C13.752 12.6142 13.6799 12.6344 13.5897 12.6344H13.5176V11.9288H13.6078C13.6979 11.9288 13.752 11.9489 13.7881 12.0094C13.8241 12.0699 13.8421 12.1505 13.8421 12.2715C13.8602 12.3925 13.8421 12.4933 13.7881 12.5538Z" fill="var(--fill-0, black)"/>
<path id="Vector_6" d="M15.9308 12.6747L15.9913 12.9167H16.3542L15.9509 11.6667H15.5074L15.1042 12.9167H15.4671L15.5276 12.6747H15.9308ZM15.6888 12.0094C15.709 11.9489 15.709 11.8884 15.709 11.8683C15.709 11.9086 15.7292 11.9489 15.7493 12.0296C15.7695 12.1102 15.7897 12.1707 15.7897 12.211L15.8501 12.4126H15.588C15.6485 12.211 15.6888 12.0699 15.6888 12.0094Z" fill="var(--fill-0, black)"/>
<path id="Vector_7" d="M13.94 10.5509L12.6213 9.30311L11.3233 10.5509H10.5815L13.3219 7.91667H10.4579L7.69689 10.5509H6.66667V10.7292H17.9167V10.5509H13.94Z" fill="var(--fill-0, black)"/>
<path id="Vector_8" d="M6.66667 13.7411H10.6227L11.9002 14.9778L13.1983 13.7411H13.8988L11.179 16.3542H14.0636L15.4853 14.9778L16.7834 13.7411H17.9167V13.5417H6.66667V13.7411Z" fill="var(--fill-0, black)"/>
<g id="Group_2">
<path id="Vector_9" d="M4.16667 11.3474V11.6938L3.35241 11.8773C3.3304 11.8773 3.26438 11.8976 3.17635 11.918C3.08832 11.9384 3.0223 11.9384 3.00029 11.9384C3.04431 11.9384 3.08832 11.9588 3.17635 11.9792C3.26438 11.9995 3.30839 11.9995 3.35241 12.0199L4.14466 12.2237V12.5702L2.60417 12.9167V12.6313L3.44043 12.4683C3.59448 12.4479 3.72653 12.4275 3.83656 12.4072C3.79255 12.4072 3.72653 12.3868 3.6605 12.3868C3.57248 12.3664 3.50646 12.3664 3.46244 12.346L2.60417 12.1218V11.8365L3.46244 11.6531C3.50646 11.6531 3.55047 11.6327 3.6385 11.6123C3.72653 11.5919 3.79255 11.5919 3.83656 11.5919C3.79255 11.5919 3.70452 11.5716 3.6385 11.5512C3.55047 11.5308 3.48445 11.5308 3.44043 11.5104L2.60417 11.327V11.0417L4.16667 11.3474Z" fill="var(--fill-0, black)"/>
<path id="Vector_10" d="M4.47917 9.85863L4.27624 10.7292L2.91667 10.3497L3.11959 9.47917L3.3631 9.54613L3.24134 10.0818L3.54572 10.1711L3.66748 9.65774L3.91098 9.7247L3.78923 10.2381L4.1342 10.3274L4.25595 9.79167L4.47917 9.85863Z" fill="var(--fill-0, black)"/>
<path id="Vector_11" d="M3.22917 8.34135L3.40991 7.97505C3.49024 7.81021 3.57056 7.70032 3.67098 7.64538C3.7513 7.59043 3.85172 7.59043 3.97221 7.64538C4.05254 7.68201 4.0927 7.71863 4.13287 7.77358C4.17303 7.82853 4.17303 7.88347 4.15295 7.93842C4.2132 7.86516 4.27344 7.82853 4.33369 7.82853C4.39394 7.81021 4.47427 7.82853 4.55459 7.86516C4.67509 7.9201 4.73533 7.99336 4.7755 8.08494C4.81566 8.17651 4.7755 8.30472 4.71525 8.43292L4.49435 8.85417L3.22917 8.34135ZM3.85172 8.30472L3.93205 8.1582C3.97221 8.08494 3.97221 8.04831 3.97221 7.99336C3.97221 7.95673 3.93205 7.9201 3.89188 7.90179C3.85172 7.88347 3.79147 7.88347 3.77139 7.90179C3.73122 7.9201 3.69106 7.97505 3.67098 8.04831L3.61073 8.17651L3.85172 8.30472ZM4.05254 8.39629L4.37385 8.54281L4.45418 8.37798C4.49435 8.30472 4.49435 8.24977 4.49435 8.21314C4.47427 8.17651 4.45418 8.13988 4.39394 8.10325C4.29353 8.06662 4.19311 8.10325 4.13287 8.23146L4.05254 8.39629Z" fill="var(--fill-0, black)"/>
<path id="Vector_12" d="M5.57765 6.66667C5.67235 6.75 5.72917 6.83333 5.72917 6.95833C5.72917 7.08333 5.69129 7.20833 5.59659 7.33333C5.52083 7.45833 5.42614 7.54167 5.3125 7.60417L5.10417 7.4375C5.17992 7.375 5.25568 7.33333 5.3125 7.29167C5.36932 7.25 5.4072 7.20833 5.42614 7.16667C5.46402 7.10417 5.48295 7.0625 5.48295 7.02083C5.48295 6.97917 5.46402 6.9375 5.42614 6.91667C5.4072 6.89583 5.38826 6.875 5.36932 6.875C5.35038 6.875 5.3125 6.875 5.29356 6.89583C5.27462 6.91667 5.19886 6.9375 5.12311 6.97917C5.04735 7.02083 4.97159 7.0625 4.93371 7.0625C4.87689 7.08333 4.83902 7.08333 4.7822 7.0625C4.72538 7.0625 4.6875 7.02083 4.63068 6.97917C4.53599 6.89583 4.47917 6.8125 4.47917 6.6875C4.47917 6.58333 4.51705 6.45833 4.5928 6.33333C4.63068 6.27083 4.6875 6.22917 4.72538 6.16667C4.76326 6.10417 4.83902 6.08333 4.89583 6.04167L5.00947 6.27083C4.95265 6.3125 4.89583 6.35417 4.85795 6.39583C4.82008 6.4375 4.7822 6.45833 4.76326 6.5C4.72538 6.54167 4.72538 6.58333 4.72538 6.625C4.72538 6.66667 4.74432 6.70833 4.7822 6.72917C4.80114 6.75 4.82008 6.75 4.83902 6.75C4.85795 6.75 4.87689 6.75 4.91477 6.72917C4.95265 6.70833 5.00947 6.6875 5.08523 6.625C5.19886 6.5625 5.29356 6.52083 5.36932 6.52083C5.44508 6.58333 5.50189 6.60417 5.57765 6.66667Z" fill="var(--fill-0, black)"/>
<path id="Vector_13" d="M6.4548 6.35417L5.41667 5.31603L5.62853 5.10417L6.66667 6.1423L6.4548 6.35417Z" fill="var(--fill-0, black)"/>
<path id="Vector_14" d="M7.60417 5.54413L7.32843 5.72917L6.54718 4.78344L6.20251 5.00959L6.04167 4.804L7.00674 4.16667L7.16759 4.37226L6.82292 4.59841L7.60417 5.54413Z" fill="var(--fill-0, black)"/>
<path id="Vector_15" d="M8.85417 4.45964L8.17235 4.79167L7.60417 3.5612L8.28599 3.22917L8.38068 3.44401L7.94508 3.65885L8.07765 3.93229L8.47538 3.73698L8.57008 3.95182L8.17235 4.14714L8.32386 4.45964L8.75947 4.24479L8.85417 4.45964Z" fill="var(--fill-0, black)"/>
<path id="Vector_16" d="M11.9744 3.32075C11.9935 3.55785 11.9553 3.7734 11.8599 3.90272C11.7645 4.03205 11.6118 4.13982 11.421 4.16137C11.211 4.18293 11.0584 4.13982 10.9439 4.01049C10.8294 3.88117 10.753 3.70873 10.7339 3.45008C10.7149 3.19143 10.753 2.99744 10.8484 2.86811C10.9439 2.73879 11.0965 2.65257 11.2874 2.60946C11.4973 2.58791 11.65 2.63101 11.7645 2.76034C11.879 2.88967 11.9553 3.0621 11.9744 3.32075ZM11.0202 3.42853C11.0393 3.60096 11.0774 3.70873 11.1347 3.79495C11.192 3.88117 11.2874 3.90272 11.4019 3.90272C11.6309 3.88117 11.7263 3.68718 11.6881 3.36386C11.65 3.01899 11.5355 2.86811 11.3065 2.88967C11.192 2.91122 11.1156 2.95433 11.0584 3.04055C11.0011 3.12676 11.0011 3.25609 11.0202 3.42853Z" fill="var(--fill-0, black)"/>
<path id="Vector_17" d="M12.8895 4.16667L12.6042 4.14435L12.7468 2.60417L13.5417 2.69345L13.5213 2.96131L13.0118 2.89435L12.971 3.29613L13.4398 3.34077L13.4194 3.60863L12.9506 3.56399L12.8895 4.16667Z" fill="var(--fill-0, black)"/>
<path id="Vector_18" d="M15.6875 4.79167L15.4167 4.66991L15.9167 3.61472L15.5625 3.45238L15.6667 3.22917L16.6667 3.6756L16.5625 3.89881L16.2083 3.73647L15.6875 4.79167Z" fill="var(--fill-0, black)"/>
<path id="Vector_19" d="M17.3455 6.04167L17.0869 5.85417L17.4749 5.35417L17.0007 5.02083L16.6128 5.52083L16.3542 5.33333L17.2378 4.16667L17.4964 4.35417L17.1516 4.8125L17.6257 5.14583L17.9705 4.6875L18.2292 4.875L17.3455 6.04167Z" fill="var(--fill-0, black)"/>
<path id="Vector_20" d="M18.4507 6.97917L17.9167 6.36239L18.9451 5.41667L19.4792 6.03344L19.3012 6.19792L18.9649 5.80729L18.7474 6.01288L19.0638 6.36239L18.8858 6.52686L18.5694 6.17736L18.3122 6.42407L18.6485 6.81469L18.4507 6.97917Z" fill="var(--fill-0, black)"/>
<path id="Vector_21" d="M20.6137 9.39949C20.3868 9.48936 20.2012 9.51182 20.0361 9.42196C19.8711 9.33209 19.7267 9.17482 19.6442 8.92768L19.4792 8.52328L20.7994 7.91667L20.9644 8.36601C21.0469 8.59068 21.0676 8.81535 21.0057 8.99508C20.9438 9.17482 20.82 9.30962 20.6137 9.39949ZM20.4693 9.08495C20.7581 8.95015 20.8407 8.74795 20.7375 8.47834L20.6756 8.32107L19.8092 8.70301L19.8505 8.83781C19.9949 9.12989 20.1805 9.21975 20.4693 9.08495Z" fill="var(--fill-0, black)"/>
<path id="Vector_22" d="M20.2892 10.7576L20.5976 10.6061L20.5154 10.1326L20.1658 10.0947L20.1042 9.79167L21.605 10.0189L21.6667 10.3598L20.3509 11.0417L20.2892 10.7576ZM20.8443 10.4924C21.1321 10.3598 21.2966 10.2841 21.3377 10.2652C21.3788 10.2462 21.3994 10.2273 21.42 10.2273C21.3377 10.2273 21.1116 10.2083 20.7826 10.1515L20.8443 10.4924Z" fill="var(--fill-0, black)"/>
<path id="Vector_23" d="M21.0193 12.2814L21.6443 12.5888V12.9167L20.7068 12.4249L20.1042 12.4044V12.097L20.7068 12.1175L21.6667 11.6667V11.9945L21.0193 12.2814Z" fill="var(--fill-0, black)"/>
</g>
<g id="Group_3">
<path id="Vector_24" d="M6.33185 19.8643L6.51042 19.4937L6.06399 19.1013L5.70685 19.3193L5.41667 19.0795L6.97917 18.2292L7.29167 18.5126L6.62202 20.1042L6.33185 19.8643ZM6.64435 19.2103C6.8006 18.8832 6.88988 18.687 6.9122 18.6434C6.93452 18.5998 6.95685 18.5562 6.95685 18.5344C6.86756 18.5998 6.66667 18.7088 6.30952 18.9268L6.64435 19.2103Z" fill="var(--fill-0, black)"/>
<path id="Vector_25" d="M8.46796 21.3542L8.13778 21.1875L8.30287 20.3542C8.30287 20.3333 8.32351 20.2708 8.34414 20.1667C8.36478 20.0833 8.38542 20.0208 8.40605 19.9792C8.38542 20.0208 8.34414 20.0625 8.30287 20.125C8.24096 20.1875 8.22032 20.25 8.17905 20.2708L7.62186 20.9167L7.29167 20.75L7.62186 19.1667L7.91077 19.3125L7.7044 20.1667C7.66313 20.3333 7.62186 20.4583 7.58058 20.5625C7.60122 20.5208 7.64249 20.4792 7.68377 20.4167C7.72504 20.3542 7.78695 20.2917 7.80759 20.25L8.40605 19.5625L8.67433 19.7083L8.4886 20.6042C8.4886 20.6458 8.46796 20.7083 8.44733 20.7917C8.42669 20.875 8.40605 20.9375 8.38542 21C8.40605 20.9583 8.44733 20.8958 8.50924 20.8333C8.55051 20.7708 8.59178 20.7083 8.63306 20.6667L9.19025 20L9.47917 20.1458L8.46796 21.3542Z" fill="var(--fill-0, black)"/>
<path id="Vector_26" d="M11.0021 21.8888L10.958 21.4596L10.3638 21.3466L10.1658 21.7307L9.79167 21.6629L10.6719 20.1042L11.0901 20.1945L11.3542 21.9792L11.0021 21.8888ZM10.936 21.1659C10.892 20.7819 10.87 20.5786 10.87 20.5108C10.87 20.443 10.87 20.4204 10.87 20.3978C10.826 20.4882 10.716 20.7141 10.5179 21.0756L10.936 21.1659Z" fill="var(--fill-0, black)"/>
<path id="Vector_27" d="M12.3363 21.3829L12.3562 21.9792H12.0387L11.9792 20.4372L12.4157 20.4167C12.6141 20.4167 12.7728 20.4372 12.872 20.5195C12.9712 20.6017 13.0308 20.7045 13.0308 20.869C13.0308 20.9512 13.0109 21.0334 12.9712 21.1157C12.9315 21.1979 12.8522 21.239 12.7728 21.2802C13.0109 21.6091 13.1696 21.8353 13.2292 21.938L12.872 21.9586L12.495 21.3829H12.3363ZM12.3165 21.1157H12.4157C12.5149 21.1157 12.5942 21.0951 12.6339 21.054C12.6736 21.0129 12.6935 20.9718 12.6935 20.8895C12.6935 20.8073 12.6736 20.7662 12.6141 20.7456C12.5546 20.7251 12.495 20.7045 12.3958 20.7045H12.2966L12.3165 21.1157Z" fill="var(--fill-0, black)"/>
<path id="Vector_28" d="M15.3781 20.6126C15.4444 20.8468 15.4223 21.042 15.334 21.1982C15.2456 21.3544 15.0248 21.4715 14.7376 21.5495L14.2959 21.6667L13.8542 20.2612L14.3622 20.1441C14.6272 20.0856 14.8481 20.0856 15.0248 20.1832C15.1794 20.2417 15.3119 20.3784 15.3781 20.6126ZM15.0248 20.6907C14.9364 20.3784 14.7376 20.2808 14.4284 20.3393L14.2517 20.3784L14.5388 21.2958L14.6935 21.2568C15.0248 21.1982 15.1352 21.003 15.0248 20.6907Z" fill="var(--fill-0, black)"/>
<path id="Vector_29" d="M16.9792 20.5891L16.1768 21.0417L15.4167 19.6193L16.219 19.1667L16.3457 19.4037L15.839 19.6839L16.0079 20.0072L16.4724 19.7486L16.5991 19.9856L16.1346 20.2443L16.3246 20.6106L16.8314 20.3305L16.9792 20.5891Z" fill="var(--fill-0, black)"/>
<path id="Vector_30" d="M18.2902 18.5257C18.4706 18.7287 18.5608 18.9541 18.5383 19.1571C18.5157 19.3826 18.403 19.5855 18.1775 19.7659L17.7941 20.1042L16.6667 18.8189L17.0726 18.4806C17.2755 18.3002 17.4784 18.21 17.7039 18.2326C17.9069 18.2326 18.1098 18.3228 18.2902 18.5257ZM17.9971 18.7738C17.749 18.5032 17.5235 18.4581 17.2755 18.6836L17.1402 18.8189L17.8618 19.6532L17.9745 19.563C18.2451 19.3149 18.2451 19.0669 17.9971 18.7738Z" fill="var(--fill-0, black)"/>
</g>
</g>
</svg>
