<svg preserveAspectRatio="none" width="100%" height="100%" overflow="visible" style="display: block;" viewBox="0 0 25 25" fill="none" xmlns="http://www.w3.org/2000/svg">
<path id="Vector" fill-rule="evenodd" clip-rule="evenodd" d="M11.6995 0.0214142C9.88873 0.140853 8.04911 0.673078 6.50195 1.52505C4.29164 2.74215 2.4389 4.66371 1.31278 6.90695C-0.492086 10.5022 -0.432384 14.8647 1.47016 18.4052C3.47235 22.1311 7.20363 24.5947 11.4075 24.9664C12.1889 25.0355 13.6117 24.9939 14.3567 24.8802C16.2101 24.5972 17.7985 23.9887 19.3712 22.9589C22.1302 21.1524 24.0922 18.283 24.7457 15.0989C24.9463 14.1215 25.0005 13.5702 25 12.5129C24.999 10.4572 24.5898 8.69532 23.7023 6.92487C21.9793 3.48801 18.7931 1.03084 15.0532 0.254721C14.0561 0.0478133 12.7142 -0.0455264 11.6995 0.0214142ZM5.82782 8.54871V8.72013H5.99926H6.17069V8.54871V8.37729H5.99926H5.82782V8.54871ZM7.24216 9.01777V9.44397L7.03858 9.45704C6.85347 9.46891 6.835 9.47984 6.835 9.57725C6.835 9.67449 6.8536 9.68559 7.03648 9.69737L7.238 9.71036L7.25077 10.7764C7.26278 11.7754 7.26916 11.85 7.35197 11.9608C7.51376 12.1773 7.6539 12.2506 7.93909 12.2682C8.28444 12.2894 8.44221 12.2311 8.44221 12.0825C8.44221 11.9855 8.42999 11.9758 8.34577 12.0064C8.29276 12.0257 8.13684 12.0415 7.99935 12.0415C7.77117 12.0415 7.73846 12.0292 7.62433 11.9015L7.49931 11.7615V10.7337V9.70581H7.97076H8.44221V9.57725V9.44868H7.97076H7.49931V9.02012V8.59157H7.37074H7.24216V9.01777ZM3.70541 9.46557C3.3328 9.58231 3.12772 9.83965 3.12772 10.1905C3.12772 10.5314 3.37112 10.7307 4.02775 10.9272C4.43303 11.0485 4.69639 11.1795 4.75494 11.2888C4.77928 11.3343 4.79921 11.4525 4.79921 11.5514C4.79921 11.7016 4.77435 11.7548 4.64891 11.8731C4.37954 12.1271 3.91332 12.1264 3.41059 11.8714C3.13492 11.7315 3.111 11.7263 3.05833 11.7957C3.0273 11.8366 3.00124 11.8834 3.00051 11.8998C2.99974 11.9162 3.14499 12.0017 3.32324 12.0898C3.6005 12.2268 3.69946 12.2527 4.00834 12.2689C4.33484 12.286 4.39197 12.2768 4.60575 12.1722C5.17217 11.8951 5.21811 11.2172 4.69078 10.9175C4.59722 10.8643 4.3567 10.7704 4.15633 10.7087C3.51328 10.5107 3.38487 10.413 3.38487 10.1216C3.38487 9.94606 3.50406 9.78073 3.68433 9.70603C3.89309 9.61959 4.39351 9.66977 4.66065 9.80391C4.87559 9.91187 4.8857 9.91302 4.92736 9.8352C4.95115 9.79071 4.97065 9.73611 4.97065 9.71391C4.97065 9.62015 4.27162 9.4018 3.99351 9.4087C3.92982 9.41028 3.80022 9.43587 3.70541 9.46557ZM9.79881 9.47559C9.49786 9.56803 9.12606 9.94478 9.00173 10.2832C8.88494 10.6012 8.87461 11.0661 8.97747 11.3758C9.28562 12.3035 10.4605 12.5984 11.228 11.9408C11.3695 11.8196 11.3739 11.808 11.3053 11.7379C11.2365 11.6673 11.2247 11.6695 11.0806 11.7794C10.8228 11.9761 10.5867 12.0609 10.2945 12.0619C9.71905 12.0639 9.26021 11.6857 9.18658 11.1487L9.15915 10.9486H10.3277H11.4962L11.4664 10.6853C11.3595 9.7398 10.6394 9.21743 9.79881 9.47559ZM5.87068 10.8415V12.2343H5.99926H6.12783V10.8415V9.44868H5.99926H5.87068V10.8415ZM9.93215 9.66026C9.53356 9.78878 9.1708 10.2525 9.1708 10.6336V10.7344H10.178H11.1852V10.6112C11.1852 10.4515 11.0823 10.1623 10.969 10.0031C10.7728 9.72763 10.2547 9.55629 9.93215 9.66026ZM16.4568 12.0629C16.4568 12.2302 16.4603 12.2343 16.6068 12.2343C16.7532 12.2343 16.7568 12.2302 16.7568 12.0629C16.7568 11.8955 16.7532 11.8915 16.6068 11.8915C16.4603 11.8915 16.4568 11.8955 16.4568 12.0629ZM7.95439 12.9902C7.80794 13.0352 7.68258 13.1187 7.53651 13.2686L7.32788 13.4828V13.2443C7.32788 13.0078 7.32676 13.0057 7.1993 13.0057H7.07073V14.3771V15.7485H7.19635H7.32201L7.33564 14.7914L7.34931 13.8344L7.479 13.6247C7.55863 13.4961 7.68858 13.3657 7.81548 13.2873C7.99069 13.179 8.06569 13.1595 8.3072 13.1595C8.67394 13.1596 8.9161 13.286 9.07857 13.5624C9.19146 13.7543 9.19232 13.7624 9.20578 14.7521L9.21936 15.7485H9.3491H9.47883L9.46413 14.7521C9.44951 13.7635 9.44844 13.7538 9.33045 13.5135C9.0871 13.018 8.54065 12.8102 7.95439 12.9902ZM10.8296 12.9802C10.4836 13.0747 10.2423 13.3669 10.2423 13.6914C10.2423 14.072 10.4425 14.2372 11.1754 14.4611C11.736 14.6324 11.9138 14.7718 11.9138 15.04C11.9138 15.6065 11.0883 15.7671 10.4022 15.3341C10.2418 15.2329 10.2321 15.2317 10.1755 15.3062C10.089 15.4204 10.0961 15.4347 10.2958 15.5499C10.7793 15.8287 11.3478 15.8852 11.7272 15.6923C11.9991 15.554 12.1374 15.347 12.1596 15.0452C12.1899 14.6332 12.0035 14.4646 11.2577 14.2295C11.003 14.1493 10.7282 14.0329 10.647 13.971C10.519 13.8734 10.4994 13.8339 10.4994 13.6736C10.4994 13.3183 10.762 13.1486 11.2509 13.1879C11.4064 13.2004 11.6192 13.2555 11.7588 13.3194L11.9991 13.4293L12.0476 13.3388C12.1068 13.228 12.0438 13.1726 11.7235 13.0541C11.4189 12.9414 11.0756 12.913 10.8296 12.9802ZM13.9553 12.9873C13.8071 13.0347 13.6675 13.1314 13.4731 13.321L13.1995 13.5879V13.2968V13.0057H13.071H12.9424V14.8299V16.6541L13.0602 16.6406L13.1781 16.627L13.1995 15.9071L13.221 15.1871L13.3808 15.3785C13.6159 15.6599 13.9534 15.8131 14.3353 15.8116C14.7102 15.8101 14.9841 15.6943 15.2651 15.4183C15.534 15.1542 15.6519 14.8731 15.6752 14.4414C15.7073 13.8454 15.4574 13.37 14.9724 13.1045C14.6492 12.9276 14.2763 12.8846 13.9553 12.9873ZM20.3712 12.9967C19.7723 13.2107 19.4215 13.7869 19.4662 14.4832C19.5161 15.261 20.0729 15.8125 20.807 15.8111C21.1936 15.8103 21.4972 15.7047 21.7483 15.4837C21.9419 15.3133 21.9445 15.3078 21.858 15.2472C21.7776 15.191 21.7567 15.196 21.6311 15.302C21.4015 15.4958 21.1784 15.5751 20.8592 15.5761C20.3941 15.5776 20.0763 15.4022 19.8755 15.0333C19.8123 14.9172 19.7477 14.7413 19.7318 14.6425L19.7031 14.4628H20.872H22.0408L22.0147 14.1831C21.9669 13.6715 21.7101 13.2583 21.3219 13.0684C21.0145 12.9181 20.6651 12.8917 20.3712 12.9967ZM18.6567 13.0669C18.4124 13.1806 18.1345 13.442 18.0278 13.6586C17.9592 13.7977 17.9588 13.7962 17.9578 13.4021L17.9568 13.0057H17.8283H17.6997V14.3771V15.7485H17.8283H17.9568V15.0277C17.9568 14.2215 18.0011 13.992 18.2132 13.6992C18.3888 13.4569 18.6274 13.3091 18.9386 13.25C19.1835 13.2035 19.1998 13.193 19.1998 13.0816C19.1998 12.9729 19.1862 12.9629 19.039 12.9633C18.9507 12.9635 18.7786 13.0101 18.6567 13.0669ZM5.87068 14.3771V15.7485H5.99926H6.12783V14.3771V13.0057H5.99926H5.87068V14.3771ZM16.4997 14.3771V15.7485H16.6068H16.7139V14.3771V13.0057H16.6068H16.4997V14.3771ZM20.4896 13.1839C20.2179 13.2469 19.8735 13.5987 19.7819 13.9071C19.7446 14.0327 19.7141 14.1609 19.7141 14.192C19.7141 14.2372 19.9202 14.2485 20.7446 14.2485H21.7752L21.7464 14.0878C21.6242 13.4061 21.1143 13.0394 20.4896 13.1839ZM13.8584 13.2647C13.6254 13.38 13.3948 13.6151 13.278 13.8562C13.2062 14.0046 13.1838 14.1287 13.1838 14.3771C13.1838 14.7566 13.2795 14.9999 13.526 15.2464C13.7363 15.4567 13.9436 15.5476 14.2621 15.5691C14.7301 15.6007 15.0788 15.4087 15.2892 15.0036C15.3873 14.8149 15.4034 14.7304 15.405 14.3985C15.4064 14.095 15.3877 13.9716 15.3173 13.8195C15.206 13.5791 14.9905 13.3598 14.7648 13.2573C14.5223 13.1472 14.0888 13.1507 13.8584 13.2647Z" fill="var(--fill-0, black)"/>
</svg>
