<svg preserveAspectRatio="none" width="100%" height="100%" overflow="visible" style="display: block;" viewBox="0 0 25 25" fill="none" xmlns="http://www.w3.org/2000/svg">
<path id="Vector" fill-rule="evenodd" clip-rule="evenodd" d="M11.3919 0.0451478C6.29849 0.483318 1.90374 4.10501 0.488055 9.03093C-0.41306 12.1664 -0.0557719 15.577 1.4722 18.4251C1.79868 19.0336 2.44234 19.9867 2.8811 20.5111C3.34389 21.0643 4.17467 21.8805 4.70726 22.3052C5.65904 23.0641 7.05239 23.8503 8.19173 24.2712C8.81801 24.5026 9.98093 24.796 10.7137 24.9075C11.4396 25.018 13.3739 25.0329 14.0802 24.9336C16.3988 24.6074 18.5599 23.681 20.3257 22.2562C22.6792 20.3571 24.3087 17.5783 24.8055 14.6168C25.0706 13.0363 25.0653 11.8718 24.786 10.2992C24.0032 5.89063 20.8329 2.17186 16.5995 0.696047C14.9517 0.121604 13.138 -0.105097 11.3919 0.0451478ZM11.4403 0.86497C9.39085 1.07285 7.57442 1.72748 5.91824 2.85517C3.14616 4.74262 1.34829 7.69396 0.896059 11.0996C0.805478 11.7817 0.819573 13.427 0.921829 14.1074C1.30503 16.6573 2.36721 18.8353 4.10114 20.6263C6.02049 22.6088 8.45476 23.81 11.2045 24.1313C12.4176 24.2731 14.0151 24.1741 15.2428 23.881C16.3746 23.6109 17.9381 22.9249 18.9242 22.266C21.879 20.2912 23.7621 17.1451 24.1087 13.6042C24.1824 12.8509 24.1463 11.4957 24.0329 10.76C23.5196 7.43043 21.5752 4.45183 18.7273 2.63249C17.4053 1.78798 15.759 1.18123 14.1287 0.937642C13.5068 0.84474 12.0325 0.80491 11.4403 0.86497ZM9.01835 6.93434C7.94571 7.03282 7.10447 7.80782 6.78787 8.9893C6.74495 9.14939 6.69758 9.52663 6.68261 9.82756L6.65539 10.3747L7.32695 10.3612L7.99846 10.3477L8.05329 9.93264C8.13443 9.3189 8.24298 9.03849 8.50363 8.76944C8.75731 8.50757 8.95911 8.43208 9.40683 8.43169C9.85494 8.43126 10.3391 8.59082 11.3434 9.06993C13.3302 10.0177 14.0523 10.287 14.8623 10.3822C16.1068 10.5284 17.0675 10.0681 17.5397 9.09957C17.7824 8.60178 17.8633 8.25239 17.8936 7.5703L17.92 6.97601H17.2425H16.565L16.5353 7.35199C16.4823 8.02467 16.2794 8.48637 15.9322 8.72447C15.7738 8.83314 15.7126 8.84357 15.2462 8.84163C14.5986 8.83896 14.2919 8.738 12.757 8.02205C11.4712 7.42223 10.9884 7.21819 10.5194 7.07634C10.108 6.9519 9.47736 6.89223 9.01835 6.93434ZM11.513 15.1747V19.832H12.3609H13.2089L13.1965 15.4601L13.1841 11.0881L12.3849 10.8041C11.9453 10.6479 11.5693 10.5195 11.5493 10.5188C11.5293 10.518 11.513 12.6132 11.513 15.1747ZM0.00342084 12.5065C0.00342084 12.8667 0.0110258 13.014 0.0203746 12.834C0.0296749 12.6539 0.0296749 12.3592 0.0203746 12.179C0.0110258 11.9989 0.00342084 12.1463 0.00342084 12.5065Z" fill="var(--fill-0, black)"/>
</svg>
