<svg preserveAspectRatio="none" width="100%" height="100%" overflow="visible" style="display: block;" viewBox="0 0 11.5625 21.25" fill="none" xmlns="http://www.w3.org/2000/svg">
<path id="Vector" fill-rule="evenodd" clip-rule="evenodd" d="M0 2.70813V5.41632L0.164097 5.39159C0.254375 5.37799 0.884859 5.35426 1.56523 5.33881C2.2456 5.32337 3.0522 5.28852 3.35767 5.26136C3.66314 5.2342 4.20845 5.18977 4.56946 5.16261C5.53107 5.09027 6.10823 5.02493 6.33665 4.96257C7.17981 4.73249 6.85914 4.50282 5.32683 4.23933C4.84625 4.15666 4.27611 4.07806 4.12635 4.07379C4.05849 4.07186 4.10166 3.99594 4.30423 3.76095C4.45131 3.59031 4.60834 3.39911 4.65307 3.3361C4.75143 3.19773 4.76612 3.19932 6.41239 3.52397C6.56513 3.55406 6.7469 3.5985 6.81632 3.62268C6.88575 3.64691 7.11296 3.71642 7.32123 3.77719C7.8474 3.93075 8.36585 4.20755 8.55191 4.4343L8.70722 4.62351L8.6075 4.80622C8.4995 5.00413 8.12213 5.25506 7.72834 5.3908C7.60166 5.43449 7.46311 5.48776 7.42055 5.50921C7.37798 5.53061 7.26438 5.56397 7.16809 5.58334C7.07181 5.6027 6.92488 5.6382 6.84157 5.66228C6.75826 5.68631 6.51403 5.74366 6.29879 5.78973C6.08354 5.83581 5.90748 5.88918 5.90748 5.90839C5.90748 5.92756 6.10631 6.00481 6.34928 6.08003C8.14793 6.6368 8.6694 6.88584 8.75721 7.22987C8.83698 7.54241 8.36847 7.92114 7.49795 8.24778C7.33133 8.31029 7.17228 8.37568 7.14451 8.3931C7.10346 8.41882 6.79885 8.5147 6.27354 8.66722C6.15473 8.70173 6.21037 8.77208 6.39977 8.82674C6.50393 8.85683 6.75952 8.92992 6.96779 8.9891C7.17607 9.04833 7.38591 9.11665 7.43413 9.14098C7.48235 9.16525 7.54612 9.18516 7.57576 9.18516C7.63564 9.18516 7.98656 9.33252 8.32278 9.49885C8.64113 9.65634 8.88646 9.89754 8.88646 10.0531C8.88646 10.1995 8.70454 10.3885 8.43118 10.5259C8.15434 10.6651 7.3637 10.9161 6.93099 11.0022C6.71519 11.0451 6.39633 11.1084 6.22244 11.1428C6.04855 11.1773 5.89319 11.2183 5.87728 11.234C5.82351 11.2868 6.05112 11.3698 6.80122 11.571C7.68426 11.8079 8.05674 11.9289 8.41664 12.0964C8.6799 12.2188 8.88646 12.4146 8.88646 12.5415C8.88646 12.6587 8.59462 12.9386 8.3714 13.0354C8.25204 13.0872 8.14298 13.1426 8.12909 13.1585C8.06977 13.2264 6.65788 13.7033 6.51615 13.7033C6.46238 13.7033 6.40431 13.7256 6.38715 13.7529C6.36998 13.7802 6.3005 13.8026 6.23269 13.8026C6.16488 13.8026 6.10944 13.8227 6.10944 13.8474C6.10944 13.9047 6.38896 14.0012 6.55548 14.0012C6.68211 14.0012 6.9636 14.0674 7.64943 14.2584C8.37382 14.4601 8.93695 14.8075 8.93695 15.0525C8.93695 15.2686 8.77952 15.4735 8.44961 15.6867C8.16515 15.8706 7.9401 15.9777 7.2455 16.2593C7.18996 16.2819 6.97749 16.3583 6.7733 16.4292C6.56917 16.5001 6.40381 16.5805 6.40588 16.6078C6.40795 16.6351 6.64314 16.6826 6.92856 16.7135C8.17858 16.8485 8.53115 16.9915 8.88495 17.5069L9.03794 17.7298V19.4899V21.25H10.3002H11.5625V10.625V0H5.78125H0V2.70813ZM0 7.23131V8.15712L0.49229 8.12415C0.763075 8.10608 1.35948 8.07028 1.81769 8.04471C2.27589 8.01914 2.91208 7.97456 3.23144 7.94571C4.60854 7.82109 4.89685 7.79354 5.32683 7.74528C6.20886 7.64633 6.81632 7.46327 6.81632 7.2964C6.81632 7.14283 6.04209 6.94835 4.74618 6.77637C3.71777 6.63993 0.508296 6.31517 0.113605 6.30768L0 6.30549V7.23131ZM0 9.97663C0 10.4697 0.0170156 10.8727 0.0378684 10.8721C0.0587213 10.8714 0.166621 10.8504 0.277702 10.8254C0.388783 10.8004 0.95681 10.7345 1.53998 10.6789C2.12316 10.6233 2.83887 10.5543 3.13046 10.5255C3.42205 10.4967 3.93327 10.4519 4.26651 10.426C4.91805 10.3754 6.00462 10.2486 6.21043 10.1991C6.57033 10.1125 6.66485 10.0672 6.66485 9.981C6.66485 9.87663 6.62486 9.85831 6.16938 9.754C5.43438 9.58559 3.38807 9.37125 0.770295 9.18844C0.402517 9.16277 0.078767 9.12787 0.0507948 9.11089C0.0174201 9.09058 0 9.38783 0 9.97663ZM0 12.5117C0 13.3653 0.00484783 13.4105 0.09346 13.3829C0.14481 13.3668 0.741263 13.32 1.41886 13.2787C4.48509 13.092 6.11131 12.9131 6.50075 12.7196C6.6803 12.6304 6.69681 12.5984 6.60173 12.5242C6.38518 12.3552 5.58509 12.2361 2.67604 11.9398C2.27337 11.8988 1.76215 11.8428 1.53998 11.8154C1.31782 11.788 0.920203 11.743 0.656386 11.7154C0.39257 11.6877 0.136932 11.653 0.0883597 11.6382C0.00646288 11.6133 0 11.677 0 12.5117ZM0 15.2486V16.0989L0.416553 16.0702C1.58962 15.9893 4.31418 15.6859 5.32683 15.5233C6.46409 15.3408 6.824 15.152 6.38134 14.9702C6.07021 14.8423 4.42187 14.6488 2.77702 14.547C2.34658 14.5204 1.69903 14.4767 1.33802 14.45C0.977006 14.4231 0.52824 14.4006 0.340816 14.3998L0 14.3984V15.2486Z" fill="var(--fill-0, black)"/>
</svg>
