<svg preserveAspectRatio="none" width="100%" height="100%" overflow="visible" style="display: block;" viewBox="0 0 18.75 12.5" fill="none" xmlns="http://www.w3.org/2000/svg">
<path id="Vector" fill-rule="evenodd" clip-rule="evenodd" d="M0.0156857 0.245125C0.0318859 0.380183 0.0644649 0.58672 0.0881181 0.704144C0.111727 0.821567 0.191032 1.28272 0.264313 1.72893C0.337593 2.17514 0.416631 2.63629 0.439927 2.75372C0.463224 2.87114 0.494642 3.05368 0.509772 3.15936C0.524901 3.26504 0.555561 3.44758 0.57792 3.56501C0.600279 3.68243 0.650129 3.97065 0.688689 4.2055C0.790666 4.82669 0.883449 5.36778 0.933924 5.63593C0.958247 5.7651 1.03849 6.23586 1.11226 6.68207C1.18603 7.12828 1.26659 7.59904 1.29131 7.7282C1.31608 7.85737 1.35692 8.08795 1.38209 8.2406C1.42743 8.51562 1.52726 9.11162 1.6038 9.56428C1.62563 9.69345 1.66436 9.92402 1.68985 10.0767C1.71533 10.2293 1.75608 10.4599 1.7804 10.5891C1.80472 10.7182 1.88711 11.1889 1.96347 11.6349C2.03983 12.081 2.11302 12.4625 2.12605 12.4828C2.1543 12.5265 2.70364 12.4825 3.14287 12.4014C4.06964 12.2303 4.86773 11.8224 5.55703 11.1674C6.26546 10.4943 6.71858 9.76996 7.22762 8.49679C8.25372 5.93043 8.5173 5.27713 8.61455 5.05949C8.63552 5.01252 8.67377 4.91858 8.69948 4.85073C8.72523 4.78292 8.75593 4.73659 8.76767 4.74787C8.77945 4.75914 8.80895 4.91072 8.83327 5.08472C8.8576 5.25872 8.90682 5.61245 8.94266 5.87078C8.97854 6.12911 9.02897 6.48458 9.05477 6.66072C9.08052 6.83685 9.13023 7.18272 9.16522 7.42931C9.20021 7.6759 9.26167 8.09862 9.30174 8.3687C9.39961 9.02768 9.43666 9.27986 9.52435 9.88453C9.56523 10.1663 9.62704 10.5891 9.66172 10.8239C9.6964 11.0588 9.75611 11.4742 9.79445 11.7472C9.90512 12.5348 9.87839 12.4913 10.243 12.4774C11.4917 12.4298 12.8397 11.825 13.7295 10.9135C14.2055 10.4259 14.6499 9.73888 14.8371 9.20134C14.878 9.08391 14.938 8.93019 14.9705 8.85974C15.003 8.78929 15.2029 8.32813 15.4147 7.83495C15.6266 7.34177 15.818 6.89983 15.8399 6.85287C15.8619 6.8059 16.0225 6.43121 16.1968 6.02023C16.3711 5.60924 16.5316 5.23456 16.5534 5.18759C16.5753 5.14062 16.7661 4.69868 16.9775 4.2055C17.189 3.71232 17.38 3.27038 17.4019 3.22341C17.4239 3.17644 17.5845 2.80175 17.7588 2.39077C17.9331 1.97979 18.0935 1.6051 18.1152 1.55813C18.3583 1.03161 18.7678 0.0398257 18.7494 0.0222335C18.7061 -0.0192703 18.3426 -0.00108026 17.9227 0.0635667C16.9738 0.209642 16.1877 0.580315 15.4986 1.20663C14.6631 1.966 14.137 2.84719 13.6956 4.22685C13.4948 4.85457 13.3 5.446 13.14 5.91348C13.0838 6.07787 12.9875 6.36609 12.9262 6.55397C12.8129 6.90116 12.4383 8.03829 12.3363 8.34478L12.2803 8.51302L12.2528 8.38748C12.2377 8.31844 12.1947 8.00255 12.1572 7.6855C12.1197 7.36846 12.0697 6.96495 12.0461 6.78882C11.9489 6.06246 11.8687 5.4577 11.8055 4.97409C11.7686 4.69227 11.7061 4.23112 11.6665 3.9493C11.6269 3.66749 11.5769 3.30241 11.5554 3.13801C11.5338 2.97362 11.4836 2.59893 11.4438 2.30537C11.404 2.01181 11.3538 1.63713 11.3322 1.47273C11.2013 0.475702 11.1481 0.100245 11.1311 0.0529772C11.1051 -0.0194411 10.7741 -0.0152565 10.3071 0.0633959C9.34503 0.225355 8.61 0.592399 7.91651 1.25706C7.27077 1.8759 6.8418 2.54803 6.40261 3.62906C6.26426 3.96958 6.13435 4.28663 6.11391 4.3336C6.09347 4.38057 6.04607 4.49586 6.00854 4.58979C5.971 4.68373 5.88857 4.88549 5.82538 5.03814C5.674 5.40373 5.05941 6.93049 4.71274 7.80216C4.56113 8.18338 4.42591 8.4956 4.41225 8.49603C4.39855 8.49645 4.36285 8.0116 4.33286 7.41863C4.14957 3.79217 4.10217 3.30339 3.87546 2.70022C3.5693 1.88568 2.93486 1.1223 2.17849 0.658455C1.66593 0.344145 1.16818 0.16374 0.532086 0.0618587C-0.0488923 -0.0311834 -0.0187232 -0.041901 0.0156857 0.245125Z" fill="var(--fill-0, black)"/>
</svg>
